<?xml version="1.0" encoding="utf-8"?>
<!-- Generator: Adobe Illustrator 23.0.6, SVG Export Plug-In . SVG Version: 6.00 Build 0)  -->
<svg version="1.1" id="Layer_1" xmlns="http://www.w3.org/2000/svg" xmlns:xlink="http://www.w3.org/1999/xlink" x="0px" y="0px"
	 viewBox="0 0 583.35 162.68" style="enable-background:new 0 0 583.35 162.68;" xml:space="preserve">
<style type="text/css">
	.st0{fill:#FFFFFF;}
	.st1{fill:url(#XMLID_2_);}
	.st2{fill:#DDE2EB;}
	.st3{fill:#919CAE;}
	.st4{fill:url(#XMLID_3_);}
	.st5{fill:url(#XMLID_4_);}
	.st6{fill:#183A68;}
	.st7{fill:#00A7E7;}
	.st8{opacity:0.35;fill:url(#XMLID_5_);}
	.st9{opacity:0.5;fill:url(#XMLID_6_);}
</style>
<g id="XMLID_2972_">
	<g id="XMLID_3010_">
		<g>
			<path class="st0" d="M233.55,136.77c-1.34,0-2.52,0.22-3.55,0.65c-0.77,0.32-1.48,0.82-2.13,1.48c-0.65,0.67-1.16,1.42-1.53,2.26
				c-0.5,1.14-0.75,2.54-0.75,4.22c0,2.62,0.72,4.68,2.17,6.17c1.44,1.49,3.39,2.24,5.84,2.24c2.42,0,4.35-0.75,5.8-2.25
				c1.44-1.5,2.17-3.58,2.17-6.24c0-2.68-0.73-4.77-2.18-6.28C237.91,137.52,235.97,136.77,233.55,136.77z M236.84,149.52
				c-0.85,0.95-1.94,1.43-3.26,1.43c-1.33,0-2.42-0.48-3.28-1.44c-0.86-0.96-1.29-2.37-1.29-4.24c0-1.89,0.42-3.31,1.26-4.25
				c0.84-0.94,1.94-1.41,3.31-1.41c1.37,0,2.47,0.46,3.3,1.39c0.83,0.93,1.24,2.33,1.24,4.22
				C238.12,147.13,237.69,148.56,236.84,149.52z M258.96,137.3c-0.61-0.16-1.93-0.25-3.95-0.25h-5.34v16.46h3.32v-6.21h2.17
				c1.51,0,2.65-0.08,3.45-0.24c0.58-0.13,1.16-0.39,1.72-0.78c0.56-0.39,1.03-0.93,1.4-1.62c0.37-0.69,0.55-1.54,0.55-2.55
				c0-1.31-0.32-2.38-0.96-3.21C260.69,138.08,259.9,137.54,258.96,137.3z M258.48,143.44c-0.25,0.37-0.6,0.64-1.04,0.81
				c-0.44,0.17-1.32,0.26-2.63,0.26h-1.82v-4.67h1.61c1.2,0,2,0.04,2.39,0.11c0.54,0.1,0.98,0.34,1.34,0.73
				c0.35,0.39,0.53,0.88,0.53,1.48C258.86,142.64,258.73,143.07,258.48,143.44z M273.86,146.26h8.27v-2.77h-8.27v-3.65h8.88v-2.78
				h-12.21v16.46h12.52v-2.77h-9.2V146.26z M302.31,147.62c-0.47-0.5-1.06-0.96-1.78-1.38c1.44-0.21,2.53-0.72,3.26-1.52
				c0.73-0.8,1.09-1.82,1.09-3.06c0-0.97-0.24-1.84-0.72-2.59c-0.48-0.76-1.12-1.28-1.92-1.58c-0.8-0.3-2.08-0.44-3.84-0.44h-7
				v16.46h3.32v-6.87h0.67c0.76,0,1.32,0.06,1.67,0.19c0.35,0.12,0.69,0.35,1,0.68c0.31,0.33,0.9,1.14,1.75,2.42l2.4,3.58h3.98
				l-2.01-3.21C303.41,149.02,302.78,148.13,302.31,147.62z M297.19,144.01h-2.46v-4.18h2.59c1.35,0,2.16,0.02,2.43,0.06
				c0.54,0.09,0.96,0.31,1.25,0.65c0.3,0.34,0.44,0.79,0.44,1.34c0,0.49-0.11,0.91-0.34,1.23c-0.22,0.33-0.54,0.56-0.93,0.7
				C299.78,143.94,298.79,144.01,297.19,144.01z M318.27,137.05l-6.41,16.46h3.53l1.36-3.74h6.58l1.44,3.74h3.62l-6.59-16.46H318.27
				z M317.77,147l2.22-6.11l2.27,6.11H317.77z M347.35,138.88c-0.69-0.73-1.52-1.23-2.48-1.52c-0.72-0.21-1.76-0.31-3.13-0.31h-6.08
				v16.46h6.26c1.23,0,2.21-0.12,2.94-0.35c0.98-0.31,1.76-0.75,2.34-1.31c0.76-0.74,1.35-1.71,1.76-2.91
				c0.34-0.98,0.51-2.15,0.51-3.5c0-1.54-0.18-2.84-0.54-3.89C348.56,140.5,348.03,139.61,347.35,138.88z M345.68,148.3
				c-0.22,0.74-0.52,1.27-0.87,1.59c-0.36,0.32-0.8,0.55-1.34,0.68c-0.41,0.1-1.08,0.16-2.01,0.16h-2.48v-10.9h1.49
				c1.35,0,2.26,0.05,2.73,0.16c0.62,0.13,1.13,0.39,1.54,0.77c0.4,0.38,0.72,0.91,0.94,1.59c0.22,0.68,0.34,1.66,0.34,2.93
				C346.02,146.56,345.91,147.57,345.68,148.3z M365.09,136.77c-1.34,0-2.52,0.22-3.55,0.65c-0.77,0.32-1.48,0.82-2.13,1.48
				c-0.65,0.67-1.16,1.42-1.53,2.26c-0.5,1.14-0.75,2.54-0.75,4.22c0,2.62,0.72,4.68,2.17,6.17c1.44,1.49,3.39,2.24,5.84,2.24
				c2.42,0,4.35-0.75,5.8-2.25c1.44-1.5,2.17-3.58,2.17-6.24c0-2.68-0.73-4.77-2.18-6.28C369.45,137.52,367.51,136.77,365.09,136.77
				z M368.38,149.52c-0.85,0.95-1.94,1.43-3.26,1.43c-1.33,0-2.42-0.48-3.28-1.44c-0.86-0.96-1.29-2.37-1.29-4.24
				c0-1.89,0.42-3.31,1.26-4.25c0.84-0.94,1.94-1.41,3.31-1.41c1.37,0,2.47,0.46,3.3,1.39c0.83,0.93,1.24,2.33,1.24,4.22
				C369.66,147.13,369.23,148.56,368.38,149.52z M392.12,147.62c-0.47-0.5-1.06-0.96-1.78-1.38c1.44-0.21,2.53-0.72,3.26-1.52
				c0.73-0.8,1.09-1.82,1.09-3.06c0-0.97-0.24-1.84-0.72-2.59c-0.48-0.76-1.12-1.28-1.92-1.58c-0.8-0.3-2.08-0.44-3.84-0.44h-7
				v16.46h3.32v-6.87h0.67c0.76,0,1.32,0.06,1.67,0.19c0.35,0.12,0.69,0.35,1,0.68c0.31,0.33,0.9,1.14,1.75,2.42l2.4,3.58h3.98
				l-2.01-3.21C393.22,149.02,392.59,148.13,392.12,147.62z M387.01,144.01h-2.46v-4.18h2.59c1.35,0,2.16,0.02,2.43,0.06
				c0.54,0.09,0.96,0.31,1.25,0.65c0.3,0.34,0.44,0.79,0.44,1.34c0,0.49-0.11,0.91-0.34,1.23c-0.22,0.33-0.54,0.56-0.93,0.7
				C389.6,143.94,388.6,144.01,387.01,144.01z M418.67,137.19h-3.32v16.32h11.59v-2.77h-8.27V137.19z M442.12,136.77
				c-1.34,0-2.52,0.22-3.55,0.65c-0.77,0.32-1.48,0.82-2.13,1.48c-0.65,0.67-1.16,1.42-1.53,2.26c-0.5,1.14-0.75,2.54-0.75,4.22
				c0,2.62,0.72,4.68,2.17,6.17c1.44,1.49,3.39,2.24,5.84,2.24c2.42,0,4.35-0.75,5.8-2.25c1.44-1.5,2.17-3.58,2.17-6.24
				c0-2.68-0.73-4.77-2.18-6.28C446.49,137.52,444.54,136.77,442.12,136.77z M445.41,149.52c-0.85,0.95-1.94,1.43-3.26,1.43
				c-1.33,0-2.42-0.48-3.28-1.44c-0.86-0.96-1.29-2.37-1.29-4.24c0-1.89,0.42-3.31,1.26-4.25c0.84-0.94,1.94-1.41,3.31-1.41
				c1.37,0,2.47,0.46,3.3,1.39c0.83,0.93,1.24,2.33,1.24,4.22C446.69,147.13,446.26,148.56,445.41,149.52z M465.9,147.46h3.81v2.09
				c-0.5,0.39-1.1,0.72-1.8,0.99c-0.7,0.27-1.4,0.41-2.1,0.41c-1.41,0-2.55-0.49-3.41-1.47c-0.87-0.98-1.3-2.44-1.3-4.39
				c0-1.81,0.43-3.18,1.29-4.1c0.86-0.92,2.01-1.38,3.47-1.38c0.96,0,1.76,0.23,2.4,0.7c0.64,0.47,1.08,1.11,1.31,1.91l3.3-0.62
				c-0.33-1.51-1.07-2.7-2.22-3.55c-1.15-0.86-2.75-1.28-4.79-1.28c-1.57,0-2.89,0.27-3.94,0.82c-1.39,0.71-2.44,1.73-3.16,3.06
				c-0.72,1.33-1.08,2.86-1.08,4.57c0,1.58,0.32,3.04,0.97,4.38c0.64,1.34,1.61,2.38,2.89,3.1c1.28,0.72,2.78,1.08,4.5,1.08
				c1.35,0,2.69-0.26,4.02-0.77c1.32-0.51,2.33-1.11,3.03-1.78v-6.56h-7.17V147.46z M481.55,153.51h3.32v-16.46h-3.32V153.51z
				 M481.17,136.11h2l3.09-3.36h-3.54L481.17,136.11z M503.64,144.42c-0.77-0.41-1.97-0.8-3.59-1.18c-1.62-0.38-2.64-0.75-3.06-1.1
				c-0.33-0.28-0.49-0.61-0.49-1c0-0.43,0.18-0.77,0.53-1.02c0.55-0.4,1.3-0.59,2.27-0.59c0.94,0,1.64,0.19,2.11,0.56
				c0.47,0.37,0.77,0.98,0.92,1.82l3.32-0.15c-0.05-1.51-0.6-2.72-1.65-3.63c-1.04-0.91-2.6-1.36-4.67-1.36
				c-1.27,0-2.35,0.19-3.24,0.57c-0.89,0.38-1.58,0.94-2.06,1.67c-0.48,0.73-0.71,1.51-0.71,2.35c0,1.3,0.51,2.41,1.52,3.31
				c0.72,0.64,1.97,1.19,3.75,1.63c1.39,0.34,2.27,0.58,2.66,0.72c0.57,0.2,0.97,0.44,1.2,0.71c0.23,0.27,0.34,0.6,0.34,0.99
				c0,0.61-0.27,1.14-0.81,1.59c-0.54,0.45-1.35,0.68-2.42,0.68c-1.01,0-1.81-0.25-2.41-0.76c-0.6-0.51-0.99-1.31-1.18-2.39
				l-3.23,0.31c0.22,1.84,0.88,3.24,2,4.2c1.12,0.96,2.71,1.44,4.8,1.44c1.43,0,2.62-0.2,3.58-0.6c0.96-0.4,1.7-1.01,2.22-1.84
				c0.52-0.82,0.79-1.71,0.79-2.65c0-1.04-0.22-1.91-0.66-2.62C505.02,145.39,504.41,144.83,503.64,144.42z M513.25,139.83h4.89
				v13.67h3.32v-13.67h4.88v-2.78h-13.09V139.83z M533.9,153.51h3.32v-16.46h-3.32V153.51z M555.08,150.11
				c-0.64,0.56-1.4,0.84-2.28,0.84c-1.2,0-2.17-0.44-2.92-1.32c-0.75-0.88-1.12-2.36-1.12-4.45c0-1.96,0.38-3.38,1.14-4.25
				c0.76-0.87,1.75-1.31,2.97-1.31c0.88,0,1.63,0.25,2.25,0.74c0.62,0.49,1.02,1.17,1.22,2.02l3.29-0.79
				c-0.37-1.32-0.94-2.33-1.68-3.03c-1.26-1.19-2.89-1.78-4.91-1.78c-2.31,0-4.17,0.76-5.58,2.27c-1.42,1.52-2.12,3.64-2.12,6.38
				c0,2.59,0.7,4.63,2.11,6.12c1.41,1.49,3.2,2.24,5.39,2.24c1.77,0,3.23-0.44,4.37-1.31c1.15-0.87,1.97-2.21,2.47-4l-3.22-1.02
				C556.18,148.66,555.72,149.54,555.08,150.11z M581.16,139.03c-1.46-1.5-3.4-2.26-5.82-2.26c-1.34,0-2.52,0.22-3.55,0.65
				c-0.77,0.32-1.48,0.82-2.13,1.48c-0.65,0.67-1.16,1.42-1.53,2.26c-0.5,1.14-0.75,2.54-0.75,4.22c0,2.62,0.72,4.68,2.17,6.17
				c1.44,1.49,3.39,2.24,5.84,2.24c2.42,0,4.35-0.75,5.8-2.25c1.44-1.5,2.17-3.58,2.17-6.24
				C583.35,142.62,582.62,140.53,581.16,139.03z M578.64,149.52c-0.85,0.95-1.94,1.43-3.26,1.43c-1.33,0-2.42-0.48-3.28-1.44
				c-0.86-0.96-1.29-2.37-1.29-4.24c0-1.89,0.42-3.31,1.26-4.25c0.84-0.94,1.94-1.41,3.31-1.41c1.37,0,2.47,0.46,3.3,1.39
				c0.83,0.93,1.24,2.33,1.24,4.22C579.91,147.13,579.49,148.56,578.64,149.52z"/>
		</g>
	</g>
	<g id="XMLID_2999_">
		<path id="XMLID_3007_" class="st0" d="M516.3,43.65h-26.34v74.81h26.34c23.85,0,38.62-13.2,38.62-37.3
			C554.91,56.85,540.52,43.65,516.3,43.65z M516.32,101.89h-7.89V60.21h7.89c11.5,0,19.28,7.54,19.28,20.96
			C535.61,94.35,527.82,101.89,516.32,101.89z"/>
		<polygon id="XMLID_3006_" class="st0" points="205.84,60.02 225.87,60.02 225.87,118.46 245.77,118.46 245.77,60.02 265.8,60.02 
			265.8,43.65 205.84,43.65 		"/>
		<rect id="XMLID_3005_" x="563.45" y="43.65" class="st0" width="19.9" height="74.81"/>
		<path id="XMLID_3002_" class="st0" d="M437.58,43.65l-28.87,74.81h19.9l3.95-10.22h25.47l3.95,10.22h19.9l-28.87-74.81H437.58z
			 M438.41,93.05l6.87-19.77l6.87,19.77H438.41z"/>
		<polygon id="XMLID_3001_" class="st0" points="274.25,118.46 274.25,118.62 325.02,118.62 325.02,102.25 294.15,102.25 
			294.15,88.48 324.02,88.48 324.02,72.1 294.15,72.1 294.15,60.02 325.02,60.02 325.02,43.65 274.25,43.65 		"/>
		<path id="XMLID_3000_" class="st0" d="M389.8,91c-3.43,6.32-10.13,10.62-17.83,10.62c-11.2,0-20.27-9.08-20.27-20.27
			c0-11.2,9.08-20.27,20.27-20.27c7.7,0,14.4,4.29,17.83,10.62h19.56c-4.3-16.66-19.38-28.99-37.39-28.99
			c-21.35,0-38.65,17.3-38.65,38.65c0,21.35,17.3,38.65,38.65,38.65c18.01,0,33.09-12.33,37.39-28.99H389.8z"/>
	</g>
	<g id="XMLID_2973_">
		<radialGradient id="XMLID_2_" cx="89.0367" cy="78.0024" r="78.0078" gradientUnits="userSpaceOnUse">
			<stop  offset="0" style="stop-color:#FFFFFF"/>
			<stop  offset="0.1768" style="stop-color:#F7F8FB"/>
			<stop  offset="0.4652" style="stop-color:#E2E6EF"/>
			<stop  offset="0.8271" style="stop-color:#BFC9DC"/>
			<stop  offset="1" style="stop-color:#ABBAD1"/>
		</radialGradient>
		<path id="XMLID_2998_" class="st1" d="M167.05,78c0,30.49-17.48,56.89-42.98,69.7c-10.53,5.32-22.45,8.31-35.03,8.31
			c-12.15,0-23.66-2.77-33.93-7.73c-1.01-0.49-3.52-0.95-4.5-1.48c-10.2-5.5-17.52-13.23-24.37-22.48
			c-8.92-12.08-14.46-26.84-15.14-42.85c-0.07-1.13-0.09-2.29-0.09-3.46c0-6.23,0.75-12.33,2.13-18.16
			c0.38-1.64,0.84-3.25,1.33-4.84c5.48-17.83,17.22-32.93,32.64-42.78C59.22,4.51,73.61,0,89.05,0c21.32,0,40.65,8.55,54.74,22.46
			C157.8,36.23,166.58,55.27,167,76.36C167.05,76.9,167.05,77.46,167.05,78"/>
		<path id="XMLID_2997_" class="st2" d="M140.02,31.48C116.99,3.32,75.5-0.84,47.34,22.19c-2.63,2.15-5.05,4.46-7.26,6.91H91.4
			v109.88c13.89-0.49,27.74-5.35,39.34-14.83C158.89,101.13,163.05,59.64,140.02,31.48z"/>
		<path id="XMLID_2996_" class="st3" d="M140.36,68.39c-0.08,0.61-0.16,1.22-0.25,1.83c-3.94,27.58-13.58,63.81-25.91,81.6
			c3.4-1.16,6.71-2.52,9.88-4.12c10.98-18.7,19.47-51.33,23.2-76.84C145.09,70.02,142.79,69.2,140.36,68.39"/>
		<g id="XMLID_2993_">
			
				<radialGradient id="XMLID_3_" cx="87.7266" cy="86.7251" r="81.6955" gradientTransform="matrix(1 0 0 0.9 0 8.6725)" gradientUnits="userSpaceOnUse">
				<stop  offset="0" style="stop-color:#D3E8F5"/>
				<stop  offset="0.0547" style="stop-color:#CEE6F5"/>
				<stop  offset="0.1264" style="stop-color:#BFE0F5"/>
				<stop  offset="0.2076" style="stop-color:#A3D7F3"/>
				<stop  offset="0.2956" style="stop-color:#74C9F0"/>
				<stop  offset="0.3892" style="stop-color:#00B6EB"/>
				<stop  offset="0.4862" style="stop-color:#00A2E5"/>
				<stop  offset="0.5" style="stop-color:#009FE3"/>
				<stop  offset="0.6929" style="stop-color:#0092D0"/>
				<stop  offset="1" style="stop-color:#0079AE"/>
			</radialGradient>
			<path id="XMLID_2995_" class="st4" d="M163.35,37.3c-4.34-7.18-23.07-15.38-49.97-20.94c-37.3-7.71-76.19-7.4-86.86,0.67
				c-0.35,0.26-0.66,0.53-0.95,0.82C22,21.35,7.94,37.71,0.67,64.65c3.77-7.49,22.91-10.36,37.11-10.95
				c19.77-0.81,43.89,2.17,43.89,2.17s-3.23,25.18-10.32,49.98c-8.86,30.97-25.21,48.13-33.95,45.81c0.2,0.09,0.4,0.18,0.6,0.24
				c13.48,4.45,40.89,10.01,61.19,10.77c19.35,0.71,34.85-51.49,41.47-94.23c23.03,7.14,34.31,15.63,33.51,22.61
				C177.27,64.14,167.87,46.01,163.35,37.3z"/>
			
				<radialGradient id="XMLID_4_" cx="29.3069" cy="139.2753" r="0.1729" gradientTransform="matrix(1 0 0 0.9 0 13.9275)" gradientUnits="userSpaceOnUse">
				<stop  offset="0" style="stop-color:#D3E8F5"/>
				<stop  offset="0.0547" style="stop-color:#CEE6F5"/>
				<stop  offset="0.1264" style="stop-color:#BFE0F5"/>
				<stop  offset="0.2076" style="stop-color:#A3D7F3"/>
				<stop  offset="0.2956" style="stop-color:#74C9F0"/>
				<stop  offset="0.3892" style="stop-color:#00B6EB"/>
				<stop  offset="0.4862" style="stop-color:#00A2E5"/>
				<stop  offset="0.5" style="stop-color:#009FE3"/>
				<stop  offset="0.6929" style="stop-color:#0092D0"/>
				<stop  offset="1" style="stop-color:#0079AE"/>
			</radialGradient>
			<path id="XMLID_2994_" class="st5" d="M29.38,139.51c-0.06-0.16-0.1-0.31-0.15-0.46C29.28,139.2,29.33,139.35,29.38,139.51z"/>
		</g>
		<path id="XMLID_2992_" class="st0" d="M81.67,55.87c-8.21-1.59-31.57-5.52-52.35-3.55C-0.33,55.14,0.7,65.22,0.48,66.31
			c0.28-1.69,1.11-3.68,3.3-4.76C24.52,51.38,81.67,55.87,81.67,55.87z"/>
		<g id="XMLID_2989_">
			<path id="XMLID_2991_" class="st3" d="M39.35,132.78c-6.99,0.22-11.89-6.86-11.89-6.86c0.24,0.7,0.56,1.33,0.9,1.93
				c0.03-0.19,0.07-0.37,0.1-0.52C50.55,156.6,70.45,87.76,73.9,63.68c0.07-0.61,0.18-1.2,0.25-1.82
				c-23.54-2.78-62-7.98-63.06,15.17c-0.02-0.01-0.04-0.03-0.06-0.04c0,0.35-0.02,0.69-0.02,1.04c0,0.45,0.03,0.89,0.03,1.34
				c0.01,0.01,0.02,0.01,0.03,0.02c0,0.01,0,0.01,0,0.02c-0.01-0.01-0.02-0.02-0.03-0.03c0,0.29,0.01,0.58,0.02,0.87
				c0.11-4.55,2.6-20.1,31.83-19.16c9.79,0.32,20.52,1.28,29.13,2.31l0.14,0.02v0.06C68.77,87,54.14,132.33,39.35,132.78z"/>
			<path id="XMLID_2990_" class="st3" d="M11.1,81.5c-0.02-0.41-0.02-0.83-0.03-1.24C11.05,81.03,11.1,81.5,11.1,81.5z"/>
		</g>
		<g id="XMLID_2986_">
			<path id="XMLID_2988_" class="st0" d="M37.65,151.71c0.01,0.01,0.03,0.02,0.04,0.02c0.05,0.01,0.1,0.01,0.15,0.01
				C37.77,151.74,37.71,151.73,37.65,151.71z"/>
			<path id="XMLID_2987_" class="st0" d="M71.35,105.86c-8.27,28.93-23.09,45.8-32.12,46.02c8.56,0.17,17.71-9.89,22.9-19.23
				c13.05-23.48,17.71-52.68,19.54-76.77C81.67,55.87,78.45,81.05,71.35,105.86z"/>
		</g>
		<g id="XMLID_2983_">
			<path id="XMLID_2985_" class="st6" d="M11.03,79.37c0.01,0.01,0.03,0.03,0.04,0.04c0-0.01,0-0.01,0-0.02
				C11.06,79.39,11.04,79.38,11.03,79.37z"/>
			<path id="XMLID_2984_" class="st6" d="M74.15,61.86c-0.08,0.61-0.18,1.2-0.25,1.82c-3.45,24.08-23.35,92.92-45.43,63.65
				c-0.43,1.93-0.92,7.6,1.22,13c1.73,4.37,5.44,8.43,10.4,9.03c4.3,0.52,19.32-11.58,28.5-41.15c4.76-15.33,8.13-31.97,10.8-50.13
				c-10.73-1.21-24.28-2.5-37.41-2.21C22.42,56.3,6.02,59.35,2.66,65.69c-1.87,3.52,3.68,8.3,8.43,11.34
				C12.15,53.88,50.62,59.08,74.15,61.86z"/>
		</g>
		<path id="XMLID_2982_" class="st0" d="M173.91,88.38c-0.85-8.2-20.37-18.03-33.25-19.94C166.76,76.99,172.67,84.51,173.91,88.38z"
			/>
		<path id="XMLID_2981_" class="st6" d="M140.38,70.15c-0.34,2.13-0.69,4.27-1.08,6.43c0,0,0,0,0,0
			C169.4,87,164.63,97.35,164.64,97.33c4.73-1.48,7.36-4.89,7.75-6.07C173.56,87.65,167.09,78.84,140.38,70.15z"/>
		<path id="XMLID_2976_" class="st7" d="M81.67,55.87c0,0-3.23,25.18-10.32,49.98c-9.48,33.14-27.54,50.47-35.66,45.04
			c-13.61-9.08-8.22-24.98-8.22-24.98c0.33,0.5,0.68,0.89,1.02,1.34c-0.43,1.86-0.96,7.61,1.2,13.07c1.73,4.37,5.44,8.43,10.4,9.03
			c4.3,0.52,19.32-11.58,28.5-41.15c4.76-15.33,8.13-31.97,10.8-50.13c-10.73-1.21-24.28-2.5-37.41-2.21
			C22.42,56.3,6.02,59.35,2.66,65.69c-1.87,3.52,3.68,8.3,8.43,11.35c-0.01,0.32-0.05,0.62-0.05,0.95c0,0.47,0.03,0.94,0.04,1.41
			C4.09,75.29,0,71.16,0,67.39c0-9.55,21.96-13.04,37.78-13.69C57.54,52.89,81.67,55.87,81.67,55.87z M173.48,87.31
			c-1.97-4.1-8.95-11.05-32.82-18.87c0.01,0,0.01,0.01,0,0.01c-0.09,0.56-0.18,1.13-0.27,1.7c26.7,8.69,33.18,17.5,32,21.11
			c-0.39,1.18-3.01,4.59-7.75,6.07c-0.17,0.65-0.36,1.32-0.54,1.97c6.44-1.44,9.83-6.1,10.07-8.25
			C174.3,89.84,174.06,88.59,173.48,87.31z M174.17,91.05c0.01-0.12,0.04-0.33,0.05-0.62C174.2,90.64,174.19,90.84,174.17,91.05z"/>
		<radialGradient id="XMLID_5_" cx="90.3794" cy="55.9556" r="64.5766" gradientUnits="userSpaceOnUse">
			<stop  offset="0" style="stop-color:#FFFFFF"/>
			<stop  offset="1" style="stop-color:#0079AE"/>
		</radialGradient>
		<path id="XMLID_2975_" class="st8" d="M124.08,20.75c-0.12-0.03-0.23-0.06-0.36-0.09c-1.39-0.35-2.83-0.69-4.3-1.04
			c-0.23-0.05-0.44-0.11-0.67-0.16c-1.69-0.39-3.43-0.76-5.22-1.13c-17.12-3.55-35.23-5.5-50.96-5.5c-1.36,0-2.66,0.02-3.93,0.05
			c-0.36,0.01-0.7,0.02-1.05,0.03c-0.94,0.03-1.86,0.06-2.75,0.1c-0.32,0.02-0.63,0.03-0.94,0.05c-1.07,0.06-2.1,0.12-3.09,0.2
			c-0.07,0.01-0.15,0.01-0.22,0.02c-1.12,0.09-2.19,0.19-3.22,0.3c-0.03,0-0.06,0.01-0.09,0.01l0,0c-8.95,0.99-14.36,2.8-16.7,4.58
			c-0.13,0.09-0.23,0.2-0.37,0.33c-8.47,8.23-17.93,25.53-20.31,32.08c10.69-3.74,25.88-4.42,38.07-4.65
			c16.96-0.31,40.65,2.81,40.65,2.81s-0.17,1.77-0.47,4.55c-0.68,6.29-2.12,18.32-4.34,30.83c8.37,5.34,17.58,9.46,27.4,12.13
			c6.03,1.51,12.38,2.43,19.09,2.83c2.58-10.11,7.62-40.06,7.62-40.06l5.49,1.82c9.61,3.2,20.15,7.51,27.49,12.79
			c-0.85-17.66-7.19-30.05-10.67-36.78C157.46,32.57,145.2,26.1,124.08,20.75z"/>
		<linearGradient id="XMLID_6_" gradientUnits="userSpaceOnUse" x1="132.8203" y1="63.1944" x2="9.8804" y2="63.1944">
			<stop  offset="0" style="stop-color:#FFFFFF"/>
			<stop  offset="0.8177" style="stop-color:#0079AE"/>
			<stop  offset="0.9997" style="stop-color:#0079AE"/>
		</linearGradient>
		<path id="XMLID_2974_" class="st9" d="M123.73,20.65c-1.39-0.35-2.83-0.69-4.3-1.04c-0.23-0.05-0.44-0.11-0.67-0.16
			c-1.69-0.39-3.43-0.76-5.22-1.13c-17.12-3.55-35.23-5.5-50.96-5.5c-1.36,0-2.66,0.02-3.93,0.05c-0.36,0.01-0.7,0.02-1.05,0.03
			c-0.94,0.03-1.86,0.06-2.75,0.1c-0.32,0.02-0.63,0.03-0.94,0.05c-1.07,0.06-2.1,0.12-3.09,0.2c-0.07,0.01-0.15,0.01-0.22,0.02
			c-1.12,0.09-2.19,0.19-3.22,0.3c-0.03,0-0.06,0.01-0.09,0.01l0,0c-8.95,0.99-14.36,2.8-16.7,4.58c-0.13,0.09-0.23,0.2-0.37,0.33
			c-8.47,8.23-17.93,25.53-20.31,32.08c10.69-3.74,25.88-4.42,38.07-4.65c16.96-0.31,40.65,2.81,40.65,2.81s-0.17,1.77-0.47,4.55
			c-1.26,11.57-5.07,42.5-11.58,60.27c10.39-5.31,19.52-11.88,27.25-19.49c0.01,0,0.01,0,0.02,0.01c17.92-18.03,29-42.87,29-70.3
			c0-0.2-0.01-0.4-0.02-0.6c-2.72-0.83-5.61-1.64-8.72-2.43C123.96,20.72,123.85,20.68,123.73,20.65z"/>
	</g>
</g>
</svg>